<svg width="43" height="45" viewBox="0 0 43 45" fill="none" xmlns="http://www.w3.org/2000/svg">
<path d="M17.1115 8.09769H16.6115C16.6115 8.84158 15.9975 9.45711 15.2245 9.45711V9.95711V10.4571C16.5358 10.4571 17.6115 9.40766 17.6115 8.09769H17.1115ZM15.2245 9.95711V9.45711C14.4516 9.45711 13.8376 8.84158 13.8376 8.09769H13.3376H12.8376C12.8376 9.40766 13.9132 10.4571 15.2245 10.4571V9.95711ZM13.3376 8.09769H13.8376C13.8376 7.35381 14.4516 6.73828 15.2245 6.73828V6.23828V5.73828C13.9132 5.73828 12.8376 6.78773 12.8376 8.09769H13.3376ZM15.2245 6.23828V6.73828C15.9975 6.73828 16.6115 7.35381 16.6115 8.09769H17.1115H17.6115C17.6115 6.78773 16.5358 5.73828 15.2245 5.73828V6.23828ZM13.3376 11.8165V12.3165H17.1115V11.8165V11.3165H13.3376V11.8165ZM17.1115 15.5353V15.0353H13.3376V15.5353V16.0353H17.1115V15.5353ZM13.3376 15.5353V15.0353C12.5647 15.0353 11.9507 14.4198 11.9507 13.6759H11.4507H10.9507C10.9507 14.9859 12.0263 16.0353 13.3376 16.0353V15.5353ZM18.9984 13.6759H18.4984C18.4984 14.4198 17.8844 15.0353 17.1115 15.0353V15.5353V16.0353C18.4228 16.0353 19.4984 14.9859 19.4984 13.6759H18.9984ZM17.1115 11.8165V12.3165C17.8844 12.3165 18.4984 12.932 18.4984 13.6759H18.9984H19.4984C19.4984 12.366 18.4228 11.3165 17.1115 11.3165V11.8165ZM13.3376 11.8165V11.3165C12.0263 11.3165 10.9507 12.366 10.9507 13.6759H11.4507H11.9507C11.9507 12.932 12.5647 12.3165 13.3376 12.3165V11.8165Z" fill="#F39C5C"/>
<path d="M42.9994 2.5V0.5H42.9991L42.9994 2.5ZM27.52 35.7631H29.52V33.7631H27.52V35.7631ZM2.05051 35.7631V33.7631H0.335461L0.0739039 35.4581L2.05051 35.7631ZM23.5 44.5C24.6046 44.5 25.5 43.6046 25.5 42.5C25.5 41.3954 24.6046 40.5 23.5 40.5V44.5ZM43 0.5L42.9994 0.5V4.5H43V0.5ZM42.9991 0.5C41.2868 0.500262 39.3378 0.779268 37.8816 2.22008C36.4334 3.65302 35.916 5.79249 35.916 8.39509H39.916C39.916 6.18185 40.3812 5.37402 40.695 5.06349C41.0009 4.76084 41.5936 4.50022 42.9997 4.5L42.9991 0.5ZM35.916 8.39509V37.3062H39.916V8.39509H35.916ZM29.52 37.302V35.7631H25.52V37.302H29.52ZM27.52 33.7631H2.05051V37.7631H27.52V33.7631ZM0.0739039 35.4581C-0.173491 37.0613 0.190146 39.2334 1.33503 41.043C2.54877 42.9614 4.67038 44.5 7.7677 44.5V40.5C6.18773 40.5 5.27749 39.7929 4.71532 38.9044C4.0843 37.907 3.92798 36.7106 4.02711 36.0682L0.0739039 35.4581ZM7.7677 44.5H23.5V40.5H7.7677V44.5ZM40.4013 4.50034L42.9997 4.5L42.9991 0.5L40.4008 0.500341L40.4013 4.50034ZM32.718 40.5C30.9518 40.5 29.52 39.0682 29.52 37.302H25.52C25.52 41.2773 28.7427 44.5 32.718 44.5V40.5ZM35.916 37.3062C35.916 39.0703 34.4864 40.5 32.718 40.5V44.5C36.6913 44.5 39.916 41.2837 39.916 37.3062H35.916Z" fill="#CCCCCC" fill-opacity="0.8"/>
<path d="M6.7682 30.9741V5.50034C6.7682 3.2912 8.55906 1.50034 10.7682 1.50034H39.401L42 1.5C38.8813 1.50034 36.916 2.57895 36.916 7.39509C36.916 12.6282 36.916 27.6474 36.916 37.3466C36.916 39.6431 35.0543 41.5 32.7577 41.5V41.5C30.4611 41.5 28.5994 39.6383 28.5994 37.3417V34.7631H1.05051C0.703982 37.0088 2.09042 41.5 6.7677 41.5C11.4458 41.5 23 41.5 23 41.5" stroke="#CCCCCC"/>
<path d="M11.4507 22.3687H29.4507" stroke="#1A252E" stroke-opacity="0.2"/>
<path d="M11.4507 29.3687H29.4507" stroke="#1A252E" stroke-opacity="0.2"/>
</svg>
