<svg width="60" height="60" viewBox="0 0 60 60" fill="none" xmlns="http://www.w3.org/2000/svg">
<rect width="60" height="60" rx="12" fill="#F68F48" fill-opacity="0.12"/>
<path d="M29.0866 12.3049C29.439 11.5144 30.561 11.5144 30.9134 12.3049L35.2197 21.9657C35.365 22.2918 35.6731 22.5156 36.0281 22.5531L46.5468 23.6633C47.4075 23.7541 47.7542 24.8212 47.1113 25.4006L39.254 32.4815C38.9889 32.7204 38.8712 33.0826 38.9452 33.4318L41.1398 43.7788C41.3194 44.6254 40.4117 45.2849 39.662 44.8525L30.4996 39.5679C30.1904 39.3896 29.8096 39.3896 29.5004 39.5679L20.338 44.8525C19.5883 45.2849 18.6806 44.6254 18.8602 43.7788L21.0548 33.4318C21.1288 33.0826 21.0111 32.7204 20.746 32.4815L12.8887 25.4006C12.2458 24.8212 12.5925 23.7541 13.4532 23.6633L23.9719 22.5531C24.3269 22.5156 24.635 22.2918 24.7803 21.9657L29.0866 12.3049Z" fill="url(#paint0_linear_6943_11173)"/>
<defs>
<linearGradient id="paint0_linear_6943_11173" x1="20.8896" y1="16.1317" x2="37.1859" y2="51.3336" gradientUnits="userSpaceOnUse">
<stop stop-color="#FFAE65"/>
<stop offset="1" stop-color="#E4520E"/>
</linearGradient>
</defs>
</svg>
