<svg width="46" height="43" viewBox="0 0 46 43" fill="none" xmlns="http://www.w3.org/2000/svg">
<g filter="url(#filter0_d_4284_2028)">
<path d="M33.1339 30.161C24.0352 29.5 5.8989 34.2093 8.19984 25.6929C9.43242 21.1308 16.6524 22.7338 16.6524 22.7338L22.1463 29.0729C22.1463 29.0729 25.7127 22.3114 26.7951 22.3113C29.3306 22.311 37.291 21.5252 37.3604 26.1148C37.4298 30.7045 37.3603 30.4681 33.1339 30.161Z" fill="#FF6C00"/>
</g>
<path d="M22.7548 22.1483C22.3825 22.6248 21.6651 22.635 21.2794 22.1693L18.167 18.4109C17.9676 18.1701 17.6666 18.0429 17.3563 18.0808C15.5017 18.3075 9.00372 19.2939 8.30116 22.0501C7.48058 25.2693 7.45827 29.6766 9.32688 29.8614C16.5069 30.5715 34.2757 30.4926 36.2325 29.8614C38.1893 29.2302 37.5574 23.0758 36.2325 22.0501C33.9499 20.283 29.2167 18.6533 26.5212 18.1228C26.1847 18.0566 25.8444 18.1935 25.6333 18.4638L22.7548 22.1483Z" stroke="black" stroke-width="1.5" stroke-linecap="round"/>
<path d="M22.0506 1.00439C20.8635 0.968806 19.8858 1.15148 19.0692 1.4859C16.5399 2.52181 15.7063 5.63855 15.9607 8.35992C16.5574 14.7453 20.7081 17.2015 23.9757 16.3152C27.8743 15.2578 29.6896 8.68818 29.072 5.71843C28.3169 2.08687 26.0852 1.12532 22.0506 1.00439Z" stroke="black" stroke-width="1.5" stroke-linecap="round"/>
<defs>
<filter id="filter0_d_4284_2028" x="0" y="18.2598" width="45.373" height="24.6133" filterUnits="userSpaceOnUse" color-interpolation-filters="sRGB">
<feFlood flood-opacity="0" result="BackgroundImageFix"/>
<feColorMatrix in="SourceAlpha" type="matrix" values="0 0 0 0 0 0 0 0 0 0 0 0 0 0 0 0 0 0 127 0" result="hardAlpha"/>
<feOffset dy="4"/>
<feGaussianBlur stdDeviation="4"/>
<feComposite in2="hardAlpha" operator="out"/>
<feColorMatrix type="matrix" values="0 0 0 0 1 0 0 0 0 0.423529 0 0 0 0 0 0 0 0 0.6 0"/>
<feBlend mode="normal" in2="BackgroundImageFix" result="effect1_dropShadow_4284_2028"/>
<feBlend mode="normal" in="SourceGraphic" in2="effect1_dropShadow_4284_2028" result="shape"/>
</filter>
</defs>
</svg>
